<?xml version="1.0" encoding="UTF-8"?>
<svg xmlns="http://www.w3.org/2000/svg" xmlns:xlink="http://www.w3.org/1999/xlink" width="200px" height="93px" viewBox="0 0 200 93" version="1.1">
<g id="surface1">
<path style=" stroke:none;fill-rule:nonzero;fill:rgb(0%,39.607843%,98.823529%);fill-opacity:1;" d="M 26.085938 60.714844 C 25.605469 59.214844 25.121094 57.882812 24.636719 56.71875 C 24.203125 55.558594 23.816406 54.566406 23.476562 53.742188 C 21.59375 54.371094 19.539062 54.808594 17.316406 55.050781 C 17.316406 58.148438 17.390625 60.789062 17.535156 62.96875 C 17.582031 64.324219 17.628906 65.488281 17.679688 66.457031 C 17.777344 67.375 17.847656 68.175781 17.894531 68.855469 C 17.992188 69.53125 18.089844 70.136719 18.1875 70.671875 C 18.28125 71.25 18.429688 71.808594 18.621094 72.339844 C 17.65625 73.066406 16.710938 73.601562 15.792969 73.941406 C 14.925781 74.277344 14.152344 74.519531 13.472656 74.667969 C 12.652344 74.859375 11.929688 74.910156 11.300781 74.8125 C 11.058594 74.132812 10.839844 73.40625 10.648438 72.632812 C 10.453125 71.90625 10.308594 70.886719 10.210938 69.582031 C 10.164062 68.320312 10.140625 66.699219 10.140625 64.710938 C 10.140625 62.726562 10.210938 60.183594 10.359375 57.082031 C 10.40625 56.746094 10.429688 56.40625 10.429688 56.066406 C 10.429688 55.726562 10.453125 55.386719 10.503906 55.050781 C 10.066406 55 9.609375 54.953125 9.125 54.902344 C 8.691406 54.855469 8.253906 54.808594 7.820312 54.757812 C 7.53125 53.984375 7.335938 53.304688 7.242188 52.722656 C 7.144531 52.09375 7.09375 51.585938 7.09375 51.199219 C 7.09375 50.714844 7.144531 50.328125 7.242188 50.035156 C 8.015625 50.179688 8.785156 50.253906 9.558594 50.253906 L 10.648438 50.253906 C 10.746094 48.21875 10.839844 46.160156 10.9375 44.078125 C 11.035156 41.945312 11.105469 39.886719 11.15625 37.902344 C 11.25 35.867188 11.324219 33.953125 11.371094 32.164062 C 11.421875 30.320312 11.46875 28.652344 11.515625 27.148438 C 10.066406 28.117188 8.8125 29.378906 7.75 30.925781 C 6.683594 32.476562 5.960938 34.269531 5.574219 36.304688 C 4.945312 36.207031 4.414062 35.917969 3.980469 35.433594 C 3.542969 34.898438 3.179688 34.367188 2.890625 33.832031 C 2.554688 33.203125 2.261719 32.5 2.023438 31.726562 C 1.78125 30.804688 1.78125 29.886719 2.023438 28.964844 C 2.261719 27.996094 2.625 27.101562 3.109375 26.277344 C 3.59375 25.40625 4.148438 24.65625 4.777344 24.023438 C 5.40625 23.347656 6.007812 22.8125 6.589844 22.425781 C 7.601562 21.796875 8.640625 21.238281 9.707031 20.753906 C 10.816406 20.222656 12.050781 19.785156 13.402344 19.449219 C 13.933594 18.914062 14.511719 18.429688 15.140625 17.996094 C 15.816406 17.558594 16.445312 17.292969 17.027344 17.195312 C 17.847656 17 18.308594 17.511719 18.402344 18.722656 C 18.839844 18.671875 19.296875 18.648438 19.78125 18.648438 C 20.265625 18.601562 20.773438 18.574219 21.304688 18.574219 C 23.140625 18.574219 25.046875 18.867188 27.03125 19.449219 C 29.011719 20.027344 30.824219 20.972656 32.464844 22.28125 C 34.15625 23.539062 35.535156 25.210938 36.597656 27.292969 C 37.660156 29.328125 38.191406 31.824219 38.191406 34.777344 C 38.191406 38.121094 37.394531 41.195312 35.800781 44.003906 C 34.253906 46.816406 32.03125 49.140625 29.132812 50.980469 C 29.46875 51.851562 29.90625 52.941406 30.4375 54.25 C 30.96875 55.558594 31.5 57.035156 32.03125 58.683594 C 32.804688 60.714844 33.625 62.628906 34.496094 64.421875 C 35.414062 66.164062 36.355469 67.691406 37.324219 69 C 38.289062 70.308594 39.304688 71.347656 40.367188 72.125 C 41.429688 72.945312 42.492188 73.429688 43.558594 73.578125 C 42.929688 74.546875 42.203125 75.222656 41.382812 75.609375 C 40.5625 76 39.738281 76.242188 38.917969 76.335938 C 38 76.484375 37.03125 76.484375 36.019531 76.335938 C 34.617188 76.046875 33.410156 75.367188 32.394531 74.304688 C 31.378906 73.238281 30.484375 71.953125 29.710938 70.453125 C 28.988281 68.949219 28.308594 67.351562 27.683594 65.65625 C 27.101562 63.914062 26.570312 62.265625 26.085938 60.714844 Z M 17.679688 29.765625 C 17.679688 30.832031 17.65625 32.113281 17.605469 33.617188 C 17.558594 35.117188 17.507812 36.738281 17.460938 38.484375 C 17.460938 40.226562 17.4375 42.066406 17.390625 44.003906 C 17.339844 45.894531 17.316406 47.785156 17.316406 49.671875 C 18.621094 49.480469 20.046875 49.164062 21.59375 48.726562 C 23.1875 48.292969 24.660156 47.566406 26.015625 46.546875 C 27.367188 45.53125 28.503906 44.175781 29.421875 42.480469 C 30.339844 40.785156 30.800781 38.605469 30.800781 35.941406 C 30.800781 33.90625 30.4375 32.1875 29.710938 30.78125 C 29.035156 29.328125 28.140625 28.167969 27.03125 27.292969 C 25.917969 26.375 24.6875 25.71875 23.332031 25.332031 C 22.027344 24.898438 20.722656 24.679688 19.417969 24.679688 C 19.175781 24.679688 18.933594 24.679688 18.695312 24.679688 C 18.453125 24.679688 18.1875 24.703125 17.894531 24.75 C 17.75 26.300781 17.679688 27.972656 17.679688 29.765625 Z M 51.894531 69 C 48.511719 69 45.902344 67.859375 44.0625 65.585938 C 42.226562 63.308594 41.308594 60.328125 41.308594 56.648438 C 41.308594 54.082031 41.671875 51.683594 42.398438 49.453125 C 43.171875 47.179688 44.183594 45.214844 45.441406 43.570312 C 46.699219 41.921875 48.148438 40.640625 49.789062 39.71875 C 51.480469 38.75 53.246094 38.265625 55.082031 38.265625 C 56.871094 38.265625 58.390625 38.917969 59.648438 40.226562 C 60.90625 41.488281 61.535156 43.304688 61.535156 45.675781 C 61.535156 47.226562 61.195312 48.777344 60.519531 50.328125 C 59.84375 51.828125 58.949219 53.183594 57.835938 54.394531 C 56.773438 55.558594 55.589844 56.503906 54.285156 57.230469 C 52.980469 57.957031 51.722656 58.320312 50.515625 58.320312 C 49.742188 58.320312 49.089844 58.222656 48.558594 58.027344 C 48.027344 57.835938 47.542969 57.542969 47.109375 57.15625 C 47.253906 59.917969 47.859375 61.855469 48.921875 62.96875 C 49.984375 64.035156 51.359375 64.566406 53.050781 64.566406 C 54.210938 64.566406 55.226562 64.324219 56.097656 63.839844 C 57.015625 63.355469 57.789062 62.800781 58.417969 62.167969 C 59.042969 61.539062 59.550781 60.910156 59.9375 60.28125 C 60.324219 59.601562 60.589844 59.09375 60.734375 58.753906 C 60.882812 58.464844 61.121094 58.320312 61.460938 58.320312 C 61.847656 58.320312 62.039062 58.609375 62.039062 59.191406 C 62.039062 59.722656 61.847656 60.546875 61.460938 61.660156 C 61.121094 62.726562 60.542969 63.816406 59.722656 64.929688 C 58.898438 65.996094 57.835938 66.941406 56.53125 67.765625 C 55.277344 68.585938 53.730469 69 51.894531 69 Z M 55.226562 41.390625 C 54.9375 41.390625 54.382812 41.703125 53.558594 42.335938 C 52.785156 42.914062 51.941406 43.789062 51.023438 44.949219 C 50.152344 46.113281 49.332031 47.515625 48.558594 49.164062 C 47.832031 50.761719 47.375 52.578125 47.179688 54.613281 C 50.082031 53.933594 52.375 52.871094 54.066406 51.417969 C 55.757812 49.964844 56.605469 47.832031 56.605469 45.023438 C 56.605469 43.617188 56.433594 42.671875 56.097656 42.1875 C 55.757812 41.65625 55.46875 41.390625 55.226562 41.390625 Z M 77.699219 54.394531 C 78.761719 54.78125 79.777344 55.144531 80.742188 55.484375 C 81.710938 55.824219 82.554688 56.234375 83.28125 56.71875 C 84.003906 57.203125 84.585938 57.785156 85.019531 58.464844 C 85.453125 59.09375 85.671875 59.894531 85.671875 60.863281 C 85.671875 62.023438 85.40625 63.113281 84.875 64.132812 C 84.390625 65.148438 83.667969 66.042969 82.699219 66.820312 C 81.734375 67.59375 80.550781 68.199219 79.148438 68.636719 C 77.792969 69.121094 76.273438 69.363281 74.582031 69.363281 C 72.695312 69.363281 71.175781 69.167969 70.015625 68.78125 C 68.855469 68.441406 67.960938 68.03125 67.332031 67.546875 C 66.703125 67.0625 66.292969 66.578125 66.101562 66.09375 C 65.90625 65.609375 65.808594 65.222656 65.808594 64.929688 C 65.808594 64.347656 65.929688 63.71875 66.171875 63.042969 C 66.414062 62.316406 66.875 61.539062 67.550781 60.714844 C 67.839844 60.378906 68.152344 60.0625 68.492188 59.773438 C 69.167969 59.191406 69.84375 58.828125 70.523438 58.683594 C 70.425781 59.796875 70.546875 60.714844 70.882812 61.441406 C 71.269531 62.121094 71.753906 62.652344 72.335938 63.042969 C 72.960938 63.429688 73.640625 63.695312 74.363281 63.839844 C 75.136719 63.984375 75.863281 64.058594 76.539062 64.058594 C 77.214844 64.058594 77.890625 63.960938 78.566406 63.769531 C 79.292969 63.574219 79.945312 63.332031 80.523438 63.042969 C 81.105469 62.703125 81.5625 62.339844 81.902344 61.953125 C 82.289062 61.515625 82.480469 61.054688 82.480469 60.570312 C 82.480469 60.039062 82.265625 59.601562 81.828125 59.261719 C 81.394531 58.925781 80.839844 58.65625 80.164062 58.464844 C 79.535156 58.222656 78.832031 58.050781 78.0625 57.957031 C 77.335938 57.808594 76.636719 57.664062 75.957031 57.519531 C 75.28125 57.375 74.363281 57.179688 73.203125 56.9375 C 72.09375 56.648438 70.980469 56.210938 69.871094 55.628906 C 68.804688 55.050781 67.863281 54.273438 67.042969 53.304688 C 66.269531 52.335938 65.882812 51.054688 65.882812 49.453125 C 65.882812 47.613281 66.34375 46.015625 67.261719 44.660156 C 68.226562 43.253906 69.386719 42.09375 70.738281 41.171875 C 72.140625 40.203125 73.613281 39.476562 75.160156 38.992188 C 76.707031 38.507812 78.085938 38.265625 79.292969 38.265625 C 79.921875 38.265625 80.597656 38.363281 81.324219 38.554688 C 82.046875 38.703125 82.722656 38.992188 83.351562 39.429688 C 83.980469 39.816406 84.488281 40.347656 84.875 41.027344 C 85.308594 41.703125 85.527344 42.578125 85.527344 43.640625 C 85.527344 44.707031 85.429688 45.578125 85.238281 46.257812 C 85.089844 46.886719 84.851562 47.394531 84.511719 47.785156 C 84.222656 48.121094 83.859375 48.339844 83.425781 48.4375 C 82.988281 48.535156 82.480469 48.582031 81.902344 48.582031 C 81.515625 48.582031 81.152344 48.535156 80.816406 48.4375 C 80.523438 48.339844 80.210938 48.242188 79.871094 48.148438 C 79.535156 48.050781 79.21875 47.878906 78.929688 47.636719 C 79.414062 47.058594 79.777344 46.5 80.019531 45.96875 C 80.308594 45.433594 80.453125 44.78125 80.453125 44.003906 C 80.453125 43.328125 80.257812 42.722656 79.871094 42.1875 C 79.535156 41.65625 78.953125 41.390625 78.132812 41.390625 C 77.261719 41.390625 76.417969 41.558594 75.597656 41.898438 C 74.824219 42.238281 74.121094 42.699219 73.492188 43.277344 C 72.914062 43.859375 72.429688 44.539062 72.042969 45.3125 C 71.707031 46.039062 71.535156 46.839844 71.535156 47.710938 C 71.535156 49.019531 72.019531 50.253906 72.988281 51.417969 C 74 52.578125 75.570312 53.570312 77.699219 54.394531 Z M 99.589844 69 C 96.207031 69 93.597656 67.859375 91.761719 65.585938 C 89.925781 63.308594 89.007812 60.328125 89.007812 56.648438 C 89.007812 54.082031 89.367188 51.683594 90.09375 49.453125 C 90.867188 47.179688 91.882812 45.214844 93.136719 43.570312 C 94.394531 41.921875 95.84375 40.640625 97.488281 39.71875 C 99.179688 38.75 100.941406 38.265625 102.777344 38.265625 C 104.566406 38.265625 106.089844 38.917969 107.34375 40.226562 C 108.601562 41.488281 109.230469 43.304688 109.230469 45.675781 C 109.230469 47.226562 108.890625 48.777344 108.214844 50.328125 C 107.539062 51.828125 106.644531 53.183594 105.53125 54.394531 C 104.46875 55.558594 103.285156 56.503906 101.980469 57.230469 C 100.675781 57.957031 99.421875 58.320312 98.210938 58.320312 C 97.4375 58.320312 96.785156 58.222656 96.253906 58.027344 C 95.722656 57.835938 95.238281 57.542969 94.804688 57.15625 C 94.949219 59.917969 95.554688 61.855469 96.617188 62.96875 C 97.679688 64.035156 99.058594 64.566406 100.75 64.566406 C 101.910156 64.566406 102.921875 64.324219 103.792969 63.839844 C 104.710938 63.355469 105.484375 62.800781 106.113281 62.167969 C 106.742188 61.539062 107.25 60.910156 107.636719 60.28125 C 108.023438 59.601562 108.289062 59.09375 108.433594 58.753906 C 108.578125 58.464844 108.820312 58.320312 109.15625 58.320312 C 109.542969 58.320312 109.738281 58.609375 109.738281 59.191406 C 109.738281 59.722656 109.542969 60.546875 109.15625 61.660156 C 108.820312 62.726562 108.238281 63.816406 107.417969 64.929688 C 106.597656 65.996094 105.53125 66.941406 104.226562 67.765625 C 102.972656 68.585938 101.425781 69 99.589844 69 Z M 102.921875 41.390625 C 102.632812 41.390625 102.078125 41.703125 101.257812 42.335938 C 100.484375 42.914062 99.636719 43.789062 98.71875 44.949219 C 97.847656 46.113281 97.027344 47.515625 96.253906 49.164062 C 95.53125 50.761719 95.070312 52.578125 94.878906 54.613281 C 97.777344 53.933594 100.074219 52.871094 101.765625 51.417969 C 103.457031 49.964844 104.300781 47.832031 104.300781 45.023438 C 104.300781 43.617188 104.132812 42.671875 103.792969 42.1875 C 103.457031 41.65625 103.164062 41.390625 102.921875 41.390625 Z M 133.585938 45.894531 C 133.585938 46.574219 133.390625 47.273438 133.003906 48 C 132.667969 48.679688 132.234375 49.332031 131.699219 49.964844 C 131.167969 50.59375 130.566406 51.148438 129.890625 51.632812 C 129.261719 52.070312 128.65625 52.335938 128.078125 52.433594 C 128.464844 50.933594 128.585938 49.769531 128.4375 48.945312 C 128.292969 48.121094 128.050781 47.515625 127.714844 47.128906 C 127.328125 46.695312 126.84375 46.453125 126.265625 46.402344 C 125.394531 46.402344 124.550781 46.910156 123.726562 47.929688 C 122.953125 48.898438 122.277344 50.109375 121.699219 51.5625 C 121.117188 52.964844 120.660156 54.492188 120.320312 56.140625 C 119.980469 57.738281 119.8125 59.191406 119.8125 60.5 C 119.765625 61.417969 119.789062 62.316406 119.886719 63.1875 C 119.933594 63.914062 120.007812 64.664062 120.101562 65.4375 C 120.246094 66.214844 120.441406 66.820312 120.683594 67.253906 C 120.394531 67.496094 119.910156 67.789062 119.234375 68.128906 C 118.605469 68.464844 117.929688 68.683594 117.203125 68.78125 C 116.527344 68.878906 115.898438 68.757812 115.320312 68.417969 C 114.789062 68.078125 114.496094 67.351562 114.449219 66.238281 C 114.351562 65.171875 114.28125 63.984375 114.230469 62.679688 C 114.230469 61.320312 114.230469 59.988281 114.230469 58.683594 C 114.28125 57.324219 114.328125 55.992188 114.375 54.6875 C 114.425781 53.378906 114.496094 52.167969 114.59375 51.054688 C 114.691406 48.921875 114.738281 47.273438 114.738281 46.113281 C 114.738281 44.949219 114.714844 43.835938 114.667969 42.769531 C 114.667969 42.578125 114.980469 42.308594 115.609375 41.972656 C 116.285156 41.582031 117.011719 41.246094 117.785156 40.953125 C 118.605469 40.664062 119.355469 40.492188 120.03125 40.445312 C 120.707031 40.398438 121.046875 40.542969 121.046875 40.882812 C 121.046875 41.414062 120.972656 42.480469 120.828125 44.078125 C 120.730469 45.628906 120.585938 47.25 120.394531 48.945312 C 120.730469 48.027344 121.167969 47.03125 121.699219 45.96875 C 122.277344 44.902344 122.929688 43.910156 123.65625 42.988281 C 124.378906 42.066406 125.203125 41.316406 126.121094 40.734375 C 127.039062 40.105469 128.050781 39.792969 129.164062 39.792969 C 130.035156 39.792969 130.734375 40.058594 131.265625 40.589844 C 131.847656 41.125 132.304688 41.730469 132.644531 42.40625 C 132.980469 43.085938 133.222656 43.761719 133.367188 44.441406 C 133.511719 45.121094 133.585938 45.605469 133.585938 45.894531 Z M 145.257812 64.421875 C 145.691406 64.421875 146.269531 63.648438 146.996094 62.097656 C 147.71875 60.546875 148.398438 58.683594 149.023438 56.503906 C 149.703125 54.324219 150.234375 52.070312 150.621094 49.746094 C 151.054688 47.421875 151.175781 45.457031 150.984375 43.859375 C 150.886719 43.328125 150.742188 42.890625 150.546875 42.550781 C 150.402344 42.214844 150.210938 41.851562 149.96875 41.460938 C 150.257812 41.074219 150.621094 40.785156 151.054688 40.589844 C 151.488281 40.347656 151.902344 40.179688 152.289062 40.082031 C 152.769531 39.9375 153.253906 39.839844 153.738281 39.792969 C 154.898438 39.742188 155.742188 39.9375 156.273438 40.371094 C 156.5625 40.664062 156.710938 41.339844 156.710938 42.40625 C 156.710938 43.472656 156.589844 44.730469 156.347656 46.183594 C 156.152344 47.589844 155.863281 49.089844 155.476562 50.691406 C 155.136719 52.238281 154.753906 53.667969 154.316406 54.976562 C 153.882812 56.234375 153.351562 57.617188 152.722656 59.117188 C 152.09375 60.570312 151.441406 61.976562 150.765625 63.332031 C 150.089844 64.640625 149.410156 65.777344 148.734375 66.746094 C 148.058594 67.667969 147.480469 68.222656 146.996094 68.417969 C 145.980469 68.804688 144.964844 69 143.953125 69 C 142.984375 69 142.378906 68.878906 142.140625 68.636719 C 142.042969 68.539062 141.824219 68.199219 141.488281 67.617188 C 141.148438 67.039062 140.761719 66.285156 140.328125 65.367188 C 139.941406 64.445312 139.503906 63.378906 139.023438 62.167969 C 138.585938 60.910156 138.199219 59.578125 137.863281 58.171875 C 137.523438 56.769531 137.28125 55.242188 137.136719 53.597656 C 136.992188 51.949219 136.824219 50.351562 136.628906 48.800781 C 136.484375 47.203125 136.269531 45.726562 135.976562 44.367188 C 135.6875 43.011719 135.253906 41.898438 134.671875 41.027344 L 138.078125 39.644531 C 138.371094 39.5 138.707031 39.378906 139.09375 39.28125 C 139.480469 39.136719 139.867188 39.089844 140.253906 39.136719 C 140.640625 39.1875 140.980469 39.378906 141.269531 39.71875 C 141.609375 40.007812 141.824219 40.542969 141.921875 41.316406 C 142.019531 42.1875 142.089844 43.230469 142.140625 44.441406 C 142.234375 45.652344 142.308594 46.910156 142.355469 48.21875 C 142.453125 49.527344 142.550781 50.835938 142.648438 52.144531 C 142.742188 53.402344 142.839844 54.539062 142.9375 55.558594 C 143.03125 56.625 143.152344 57.6875 143.300781 58.753906 C 143.492188 59.820312 143.6875 60.765625 143.878906 61.589844 C 144.121094 62.410156 144.339844 63.089844 144.53125 63.621094 C 144.773438 64.15625 145.015625 64.421875 145.257812 64.421875 Z M 160.984375 42.480469 C 160.984375 42.1875 161.371094 41.875 162.144531 41.535156 C 162.917969 41.195312 163.765625 40.929688 164.683594 40.734375 C 165.648438 40.492188 166.519531 40.371094 167.292969 40.371094 C 168.113281 40.324219 168.523438 40.492188 168.523438 40.882812 C 168.523438 41.609375 168.476562 42.648438 168.378906 44.003906 C 168.28125 45.3125 168.160156 46.71875 168.015625 48.21875 C 167.871094 49.671875 167.726562 51.148438 167.582031 52.652344 C 167.4375 54.105469 167.339844 55.339844 167.292969 56.355469 C 167.195312 57.421875 167.097656 58.585938 167.003906 59.84375 C 166.90625 60.910156 166.832031 62.097656 166.785156 63.40625 C 166.738281 64.710938 166.738281 66.042969 166.785156 67.402344 C 166.785156 67.644531 166.542969 67.886719 166.058594 68.128906 C 165.578125 68.371094 165.046875 68.539062 164.464844 68.636719 C 163.886719 68.78125 163.328125 68.855469 162.796875 68.855469 C 162.265625 68.855469 161.976562 68.757812 161.929688 68.5625 C 161.832031 68.371094 161.734375 68.03125 161.636719 67.546875 C 161.542969 67.0625 161.445312 66.382812 161.347656 65.511719 C 161.25 64.589844 161.179688 63.429688 161.128906 62.023438 C 161.082031 60.570312 161.105469 58.828125 161.203125 56.792969 C 161.398438 52.773438 161.421875 49.671875 161.277344 47.492188 C 161.128906 45.265625 161.035156 43.59375 160.984375 42.480469 Z M 166.058594 28.019531 C 167.027344 28.019531 167.945312 28.3125 168.8125 28.894531 C 169.683594 29.472656 170.121094 30.25 170.121094 31.21875 C 170.121094 31.945312 169.925781 32.648438 169.539062 33.324219 C 169.199219 34.003906 168.765625 34.609375 168.234375 35.140625 C 167.703125 35.675781 167.097656 36.109375 166.421875 36.449219 C 165.746094 36.738281 165.117188 36.886719 164.539062 36.886719 C 163.765625 36.886719 163.136719 36.765625 162.652344 36.523438 C 162.167969 36.230469 161.78125 35.917969 161.492188 35.578125 C 161.25 35.191406 161.082031 34.777344 160.984375 34.34375 C 160.890625 33.90625 160.839844 33.496094 160.839844 33.105469 C 160.839844 32.621094 160.914062 32.089844 161.058594 31.507812 C 161.203125 30.878906 161.46875 30.320312 161.855469 29.835938 C 162.242188 29.304688 162.773438 28.867188 163.449219 28.53125 C 164.128906 28.191406 164.996094 28.019531 166.058594 28.019531 Z M 164.246094 34.777344 C 164.539062 34.777344 164.851562 34.679688 165.191406 34.488281 C 165.578125 34.246094 165.914062 33.980469 166.203125 33.6875 C 166.542969 33.398438 166.808594 33.082031 167.003906 32.742188 C 167.242188 32.40625 167.363281 32.113281 167.363281 31.871094 C 167.363281 31.484375 167.171875 31.289062 166.785156 31.289062 C 166.542969 31.289062 166.230469 31.386719 165.84375 31.582031 C 165.503906 31.773438 165.164062 32.015625 164.828125 32.308594 C 164.488281 32.550781 164.199219 32.839844 163.957031 33.179688 C 163.765625 33.46875 163.667969 33.761719 163.667969 34.050781 C 163.667969 34.535156 163.859375 34.777344 164.246094 34.777344 Z M 194.476562 64.496094 C 194.570312 64.832031 194.714844 65.148438 194.910156 65.4375 C 195.054688 65.679688 195.246094 65.921875 195.488281 66.164062 C 195.78125 66.359375 196.117188 66.480469 196.503906 66.527344 C 196.167969 67.207031 195.828125 67.667969 195.488281 67.910156 C 195.296875 68.054688 195.128906 68.152344 194.980469 68.199219 C 194.546875 68.34375 193.894531 68.417969 193.023438 68.417969 C 192.15625 68.417969 191.308594 68.152344 190.488281 67.617188 C 190.199219 67.375 189.933594 67.011719 189.691406 66.527344 C 189.449219 66.140625 189.230469 65.609375 189.039062 64.929688 C 188.894531 64.203125 188.773438 63.285156 188.675781 62.167969 C 188 63.621094 187.226562 64.785156 186.355469 65.65625 C 185.535156 66.480469 184.714844 67.085938 183.890625 67.472656 C 182.972656 68.007812 182.03125 68.320312 181.066406 68.417969 C 179.855469 68.515625 178.695312 68.320312 177.585938 67.835938 C 176.523438 67.304688 175.605469 66.527344 174.832031 65.511719 C 174.105469 64.445312 173.550781 63.164062 173.164062 61.660156 C 172.777344 60.160156 172.65625 58.464844 172.800781 56.574219 C 172.945312 54.589844 173.332031 52.820312 173.960938 51.269531 C 174.589844 49.722656 175.339844 48.339844 176.207031 47.128906 C 177.078125 45.917969 177.996094 44.902344 178.960938 44.078125 C 179.929688 43.207031 180.847656 42.503906 181.71875 41.972656 C 182.636719 41.390625 183.410156 40.976562 184.035156 40.734375 C 184.714844 40.445312 185.148438 40.277344 185.339844 40.226562 C 185.871094 40.082031 186.332031 40.035156 186.71875 40.082031 C 187.105469 40.128906 187.445312 40.347656 187.734375 40.734375 C 187.832031 40.882812 187.949219 41.050781 188.097656 41.246094 C 188.191406 41.4375 188.3125 41.703125 188.457031 42.042969 C 188.601562 42.335938 188.722656 42.671875 188.820312 43.0625 C 187.660156 43.59375 186.574219 44.199219 185.558594 44.878906 C 184.542969 45.507812 183.601562 46.28125 182.730469 47.203125 C 181.910156 48.121094 181.1875 49.238281 180.558594 50.542969 C 179.929688 51.851562 179.445312 53.449219 179.109375 55.339844 C 178.625 57.714844 178.746094 59.625 179.46875 61.078125 C 180.242188 62.53125 181.28125 63.136719 182.585938 62.894531 C 183.359375 62.652344 184.109375 62.195312 184.835938 61.515625 C 185.460938 60.933594 186.113281 60.0625 186.792969 58.898438 C 187.515625 57.738281 188.191406 56.140625 188.820312 54.105469 C 189.0625 51.199219 189.257812 48.921875 189.402344 47.273438 C 189.59375 45.578125 189.761719 44.296875 189.910156 43.425781 C 190.101562 42.40625 190.246094 41.730469 190.34375 41.390625 C 190.488281 41.148438 190.777344 40.929688 191.214844 40.734375 C 191.648438 40.492188 192.132812 40.300781 192.664062 40.15625 C 193.195312 40.007812 193.675781 39.9375 194.113281 39.9375 C 194.546875 39.886719 194.835938 39.886719 194.980469 39.9375 C 195.078125 39.984375 195.128906 40.589844 195.128906 41.753906 C 195.128906 42.867188 195.078125 44.296875 194.980469 46.039062 C 194.933594 47.734375 194.863281 49.601562 194.765625 51.632812 C 194.667969 53.621094 194.570312 55.507812 194.476562 57.300781 C 194.425781 59.09375 194.378906 60.667969 194.328125 62.023438 C 194.328125 63.332031 194.378906 64.15625 194.476562 64.496094 Z M 194.476562 64.496094 "/>
</g>
</svg>
